<svg width="12" height="16" viewBox="0 0 12 16" fill="none" xmlns="http://www.w3.org/2000/svg">
<path d="M3 4C2.72386 4 2.5 4.22386 2.5 4.5C2.5 4.77614 2.72386 5 3 5H9C9.27614 5 9.5 4.77614 9.5 4.5C9.5 4.22386 9.27614 4 9 4H3Z" fill="#6D6D6D"/>
<path d="M2.5 6.5C2.5 6.22386 2.72386 6 3 6H9C9.27614 6 9.5 6.22386 9.5 6.5C9.5 6.77614 9.27614 7 9 7H3C2.72386 7 2.5 6.77614 2.5 6.5Z" fill="#6D6D6D"/>
<path d="M3 8C2.72386 8 2.5 8.22386 2.5 8.5C2.5 8.77614 2.72386 9 3 9H9C9.27614 9 9.5 8.77614 9.5 8.5C9.5 8.22386 9.27614 8 9 8H3Z" fill="#6D6D6D"/>
<path d="M3 10C2.72386 10 2.5 10.2239 2.5 10.5C2.5 10.7761 2.72386 11 3 11H6C6.27614 11 6.5 10.7761 6.5 10.5C6.5 10.2239 6.27614 10 6 10H3Z" fill="#6D6D6D"/>
<path d="M0 2C0 0.89543 0.895431 0 2 0H10C11.1046 0 12 0.89543 12 2V14C12 15.1046 11.1046 16 10 16H2C0.895431 16 0 15.1046 0 14V2ZM10 1H2C1.44772 1 1 1.44772 1 2V14C1 14.5523 1.44772 15 2 15H10C10.5523 15 11 14.5523 11 14V2C11 1.44772 10.5523 1 10 1Z" fill="#6D6D6D"/>
</svg>
